<mxfile host="app.diagrams.net" modified="2024-01-02T03:07:01.057Z" agent="Mozilla/5.0 (Windows NT 10.0; Win64; x64; rv:121.0) Gecko/20100101 Firefox/121.0" etag="cycStiU3UCOYtril5tLI" version="22.1.16" type="device">
  <diagram name="Page-1" id="o5QRpmh6v4L9PfPdW_MD">
    <mxGraphModel dx="1221" dy="1593" grid="1" gridSize="10" guides="1" tooltips="1" connect="1" arrows="1" fold="1" page="1" pageScale="1" pageWidth="850" pageHeight="1100" math="0" shadow="0">
      <root>
        <mxCell id="0" />
        <mxCell id="1" parent="0" />
        <mxCell id="IAjaX-PFbVuU0al4ulls-1" value="users" style="outlineConnect=0;gradientColor=none;fontColor=#545B64;strokeColor=none;fillColor=#879196;dashed=0;verticalLabelPosition=bottom;verticalAlign=top;align=center;html=1;fontSize=12;fontStyle=0;aspect=fixed;shape=mxgraph.aws4.illustration_users;pointerEvents=1;" vertex="1" parent="1">
          <mxGeometry x="40" y="310" width="50" height="50" as="geometry" />
        </mxCell>
        <mxCell id="IAjaX-PFbVuU0al4ulls-2" value="devices" style="outlineConnect=0;gradientColor=none;fontColor=#545B64;strokeColor=none;fillColor=#879196;dashed=0;verticalLabelPosition=bottom;verticalAlign=top;align=center;html=1;fontSize=12;fontStyle=0;aspect=fixed;shape=mxgraph.aws4.illustration_devices;pointerEvents=1;" vertex="1" parent="1">
          <mxGeometry x="119.45" y="445" width="60.55" height="44.2" as="geometry" />
        </mxCell>
        <mxCell id="IAjaX-PFbVuU0al4ulls-6" style="edgeStyle=orthogonalEdgeStyle;rounded=0;orthogonalLoop=1;jettySize=auto;html=1;exitX=0.5;exitY=1;exitDx=0;exitDy=0;exitPerimeter=0;" edge="1" parent="1" source="IAjaX-PFbVuU0al4ulls-3" target="IAjaX-PFbVuU0al4ulls-1">
          <mxGeometry relative="1" as="geometry" />
        </mxCell>
        <mxCell id="IAjaX-PFbVuU0al4ulls-11" style="edgeStyle=orthogonalEdgeStyle;rounded=0;orthogonalLoop=1;jettySize=auto;html=1;exitX=1;exitY=0.5;exitDx=0;exitDy=0;exitPerimeter=0;" edge="1" parent="1" source="IAjaX-PFbVuU0al4ulls-3">
          <mxGeometry relative="1" as="geometry">
            <mxPoint x="120" y="222" as="targetPoint" />
          </mxGeometry>
        </mxCell>
        <mxCell id="IAjaX-PFbVuU0al4ulls-3" value="" style="outlineConnect=0;dashed=0;verticalLabelPosition=bottom;verticalAlign=top;align=center;html=1;shape=mxgraph.aws3.management_console;fillColor=#D2D3D3;gradientColor=none;" vertex="1" parent="1">
          <mxGeometry x="46.75" y="200" width="36.5" height="43" as="geometry" />
        </mxCell>
        <mxCell id="IAjaX-PFbVuU0al4ulls-7" value="" style="outlineConnect=0;dashed=0;verticalLabelPosition=bottom;verticalAlign=top;align=center;html=1;shape=mxgraph.aws3.route_53;fillColor=#F58536;gradientColor=none;" vertex="1" parent="1">
          <mxGeometry x="128.9" y="197.5" width="40" height="42.5" as="geometry" />
        </mxCell>
        <mxCell id="IAjaX-PFbVuU0al4ulls-58" value="" style="edgeStyle=orthogonalEdgeStyle;rounded=0;orthogonalLoop=1;jettySize=auto;html=1;" edge="1" parent="1" source="IAjaX-PFbVuU0al4ulls-8" target="IAjaX-PFbVuU0al4ulls-7">
          <mxGeometry relative="1" as="geometry" />
        </mxCell>
        <mxCell id="IAjaX-PFbVuU0al4ulls-8" value="" style="outlineConnect=0;dashed=0;verticalLabelPosition=bottom;verticalAlign=top;align=center;html=1;shape=mxgraph.aws3.shield;fillColor=#759C3E;gradientColor=none;" vertex="1" parent="1">
          <mxGeometry x="134.76999999999998" y="130" width="28.25" height="30" as="geometry" />
        </mxCell>
        <mxCell id="IAjaX-PFbVuU0al4ulls-30" style="edgeStyle=orthogonalEdgeStyle;rounded=0;orthogonalLoop=1;jettySize=auto;html=1;exitX=1;exitY=0.56;exitDx=0;exitDy=0;exitPerimeter=0;" edge="1" parent="1" source="IAjaX-PFbVuU0al4ulls-9">
          <mxGeometry relative="1" as="geometry">
            <mxPoint x="270" y="224" as="targetPoint" />
          </mxGeometry>
        </mxCell>
        <mxCell id="IAjaX-PFbVuU0al4ulls-9" value="" style="outlineConnect=0;dashed=0;verticalLabelPosition=bottom;verticalAlign=top;align=center;html=1;shape=mxgraph.aws3.waf;fillColor=#759C3E;gradientColor=none;" vertex="1" parent="1">
          <mxGeometry x="210" y="200" width="30" height="43" as="geometry" />
        </mxCell>
        <mxCell id="IAjaX-PFbVuU0al4ulls-27" value="" style="edgeStyle=orthogonalEdgeStyle;rounded=0;orthogonalLoop=1;jettySize=auto;html=1;" edge="1" parent="1" source="IAjaX-PFbVuU0al4ulls-10" target="IAjaX-PFbVuU0al4ulls-20">
          <mxGeometry relative="1" as="geometry" />
        </mxCell>
        <mxCell id="IAjaX-PFbVuU0al4ulls-10" value="" style="outlineConnect=0;dashed=0;verticalLabelPosition=bottom;verticalAlign=top;align=center;html=1;shape=mxgraph.aws3.cloudfront;fillColor=#F58536;gradientColor=none;" vertex="1" parent="1">
          <mxGeometry x="274" y="193.75" width="30" height="53" as="geometry" />
        </mxCell>
        <mxCell id="IAjaX-PFbVuU0al4ulls-17" style="edgeStyle=orthogonalEdgeStyle;rounded=0;orthogonalLoop=1;jettySize=auto;html=1;exitX=1;exitY=0.5;exitDx=0;exitDy=0;exitPerimeter=0;entryX=-0.333;entryY=0.465;entryDx=0;entryDy=0;entryPerimeter=0;" edge="1" parent="1" source="IAjaX-PFbVuU0al4ulls-7" target="IAjaX-PFbVuU0al4ulls-9">
          <mxGeometry relative="1" as="geometry" />
        </mxCell>
        <mxCell id="IAjaX-PFbVuU0al4ulls-62" style="edgeStyle=orthogonalEdgeStyle;rounded=0;orthogonalLoop=1;jettySize=auto;html=1;exitX=0.5;exitY=0;exitDx=0;exitDy=0;exitPerimeter=0;" edge="1" parent="1" source="IAjaX-PFbVuU0al4ulls-20" target="IAjaX-PFbVuU0al4ulls-34">
          <mxGeometry relative="1" as="geometry">
            <mxPoint x="362" y="100" as="targetPoint" />
          </mxGeometry>
        </mxCell>
        <mxCell id="IAjaX-PFbVuU0al4ulls-63" style="edgeStyle=orthogonalEdgeStyle;rounded=0;orthogonalLoop=1;jettySize=auto;html=1;" edge="1" parent="1" source="IAjaX-PFbVuU0al4ulls-20" target="IAjaX-PFbVuU0al4ulls-33">
          <mxGeometry relative="1" as="geometry">
            <mxPoint x="361.75" y="290" as="targetPoint" />
            <Array as="points">
              <mxPoint x="362" y="270" />
              <mxPoint x="487" y="270" />
            </Array>
          </mxGeometry>
        </mxCell>
        <mxCell id="IAjaX-PFbVuU0al4ulls-20" value="" style="points=[[0,0,0],[0.25,0,0],[0.5,0,0],[0.75,0,0],[1,0,0],[0,1,0],[0.25,1,0],[0.5,1,0],[0.75,1,0],[1,1,0],[0,0.25,0],[0,0.5,0],[0,0.75,0],[1,0.25,0],[1,0.5,0],[1,0.75,0]];outlineConnect=0;fontColor=#232F3E;fillColor=#8C4FFF;strokeColor=#ffffff;dashed=0;verticalLabelPosition=bottom;verticalAlign=top;align=center;html=1;fontSize=12;fontStyle=0;aspect=fixed;shape=mxgraph.aws4.resourceIcon;resIcon=mxgraph.aws4.elastic_load_balancing;" vertex="1" parent="1">
          <mxGeometry x="343" y="201.25" width="37.5" height="37.5" as="geometry" />
        </mxCell>
        <mxCell id="IAjaX-PFbVuU0al4ulls-67" style="edgeStyle=orthogonalEdgeStyle;rounded=0;orthogonalLoop=1;jettySize=auto;html=1;exitX=1;exitY=0.5;exitDx=0;exitDy=0;" edge="1" parent="1" source="IAjaX-PFbVuU0al4ulls-33" target="IAjaX-PFbVuU0al4ulls-42">
          <mxGeometry relative="1" as="geometry" />
        </mxCell>
        <mxCell id="IAjaX-PFbVuU0al4ulls-68" style="edgeStyle=orthogonalEdgeStyle;rounded=0;orthogonalLoop=1;jettySize=auto;html=1;exitX=1;exitY=0.25;exitDx=0;exitDy=0;" edge="1" parent="1" source="IAjaX-PFbVuU0al4ulls-33">
          <mxGeometry relative="1" as="geometry">
            <mxPoint x="730" y="130" as="targetPoint" />
          </mxGeometry>
        </mxCell>
        <mxCell id="IAjaX-PFbVuU0al4ulls-69" style="edgeStyle=orthogonalEdgeStyle;rounded=0;orthogonalLoop=1;jettySize=auto;html=1;exitX=1;exitY=0.75;exitDx=0;exitDy=0;" edge="1" parent="1" source="IAjaX-PFbVuU0al4ulls-33" target="IAjaX-PFbVuU0al4ulls-39">
          <mxGeometry relative="1" as="geometry" />
        </mxCell>
        <mxCell id="IAjaX-PFbVuU0al4ulls-71" style="edgeStyle=orthogonalEdgeStyle;rounded=0;orthogonalLoop=1;jettySize=auto;html=1;exitX=1;exitY=1;exitDx=0;exitDy=0;" edge="1" parent="1" source="IAjaX-PFbVuU0al4ulls-33">
          <mxGeometry relative="1" as="geometry">
            <mxPoint x="640" y="406" as="targetPoint" />
          </mxGeometry>
        </mxCell>
        <mxCell id="IAjaX-PFbVuU0al4ulls-33" value="EC2 instance contents" style="points=[[0,0],[0.25,0],[0.5,0],[0.75,0],[1,0],[1,0.25],[1,0.5],[1,0.75],[1,1],[0.75,1],[0.5,1],[0.25,1],[0,1],[0,0.75],[0,0.5],[0,0.25]];outlineConnect=0;gradientColor=none;html=1;whiteSpace=wrap;fontSize=12;fontStyle=0;container=1;pointerEvents=0;collapsible=0;recursiveResize=0;shape=mxgraph.aws4.group;grIcon=mxgraph.aws4.group_ec2_instance_contents;strokeColor=#D86613;fillColor=none;verticalAlign=top;align=left;spacingLeft=30;fontColor=#D86613;dashed=0;" vertex="1" parent="1">
          <mxGeometry x="411.25" y="297.5" width="151" height="131.75" as="geometry" />
        </mxCell>
        <mxCell id="IAjaX-PFbVuU0al4ulls-31" value="" style="outlineConnect=0;dashed=0;verticalLabelPosition=bottom;verticalAlign=top;align=center;html=1;shape=mxgraph.aws3.ec2;fillColor=#F58534;gradientColor=none;" vertex="1" parent="IAjaX-PFbVuU0al4ulls-33">
          <mxGeometry x="16.75" y="43.75" width="30" height="43" as="geometry" />
        </mxCell>
        <mxCell id="IAjaX-PFbVuU0al4ulls-36" value="" style="points=[[0,0,0],[0.25,0,0],[0.5,0,0],[0.75,0,0],[1,0,0],[0,1,0],[0.25,1,0],[0.5,1,0],[0.75,1,0],[1,1,0],[0,0.25,0],[0,0.5,0],[0,0.75,0],[1,0.25,0],[1,0.5,0],[1,0.75,0]];outlineConnect=0;fontColor=#232F3E;fillColor=#ED7100;strokeColor=#ffffff;dashed=0;verticalLabelPosition=bottom;verticalAlign=top;align=center;html=1;fontSize=12;fontStyle=0;aspect=fixed;shape=mxgraph.aws4.resourceIcon;resIcon=mxgraph.aws4.auto_scaling2;" vertex="1" parent="IAjaX-PFbVuU0al4ulls-33">
          <mxGeometry x="56.75" y="48.5" width="33.25" height="33.25" as="geometry" />
        </mxCell>
        <mxCell id="IAjaX-PFbVuU0al4ulls-38" value="" style="shape=image;html=1;verticalAlign=top;verticalLabelPosition=bottom;labelBackgroundColor=#ffffff;imageAspect=0;aspect=fixed;image=https://cdn4.iconfinder.com/data/icons/ios-web-user-interface-multi-circle-flat-vol-5/512/Collection_folder_data_group_locked_security_secure_lock-128.png;" vertex="1" parent="IAjaX-PFbVuU0al4ulls-33">
          <mxGeometry x="98.75" y="43.75" width="38" height="38" as="geometry" />
        </mxCell>
        <mxCell id="IAjaX-PFbVuU0al4ulls-80" value="EC2,Auto Scaling,Security Group" style="text;html=1;strokeColor=none;fillColor=none;align=center;verticalAlign=middle;whiteSpace=wrap;rounded=0;" vertex="1" parent="IAjaX-PFbVuU0al4ulls-33">
          <mxGeometry x="7.75" y="81.75" width="139.25" height="50" as="geometry" />
        </mxCell>
        <mxCell id="IAjaX-PFbVuU0al4ulls-64" style="edgeStyle=orthogonalEdgeStyle;rounded=0;orthogonalLoop=1;jettySize=auto;html=1;exitX=0.75;exitY=0;exitDx=0;exitDy=0;" edge="1" parent="1" source="IAjaX-PFbVuU0al4ulls-34" target="IAjaX-PFbVuU0al4ulls-39">
          <mxGeometry relative="1" as="geometry" />
        </mxCell>
        <mxCell id="IAjaX-PFbVuU0al4ulls-65" style="edgeStyle=orthogonalEdgeStyle;rounded=0;orthogonalLoop=1;jettySize=auto;html=1;exitX=1;exitY=0.5;exitDx=0;exitDy=0;entryX=0;entryY=0.5;entryDx=0;entryDy=0;entryPerimeter=0;" edge="1" parent="1" source="IAjaX-PFbVuU0al4ulls-34" target="IAjaX-PFbVuU0al4ulls-40">
          <mxGeometry relative="1" as="geometry">
            <mxPoint x="690" y="95" as="targetPoint" />
          </mxGeometry>
        </mxCell>
        <mxCell id="IAjaX-PFbVuU0al4ulls-66" style="edgeStyle=orthogonalEdgeStyle;rounded=0;orthogonalLoop=1;jettySize=auto;html=1;exitX=1;exitY=0.75;exitDx=0;exitDy=0;" edge="1" parent="1" source="IAjaX-PFbVuU0al4ulls-34" target="IAjaX-PFbVuU0al4ulls-42">
          <mxGeometry relative="1" as="geometry" />
        </mxCell>
        <mxCell id="IAjaX-PFbVuU0al4ulls-34" value="EC2 instance contents" style="points=[[0,0],[0.25,0],[0.5,0],[0.75,0],[1,0],[1,0.25],[1,0.5],[1,0.75],[1,1],[0.75,1],[0.5,1],[0.25,1],[0,1],[0,0.75],[0,0.5],[0,0.25]];outlineConnect=0;gradientColor=none;html=1;whiteSpace=wrap;fontSize=12;fontStyle=0;container=1;pointerEvents=0;collapsible=0;recursiveResize=0;shape=mxgraph.aws4.group;grIcon=mxgraph.aws4.group_ec2_instance_contents;strokeColor=#D86613;fillColor=none;verticalAlign=top;align=left;spacingLeft=30;fontColor=#D86613;dashed=0;" vertex="1" parent="1">
          <mxGeometry x="413.25" y="40" width="146.75" height="137" as="geometry" />
        </mxCell>
        <mxCell id="IAjaX-PFbVuU0al4ulls-32" value="" style="outlineConnect=0;dashed=0;verticalLabelPosition=bottom;verticalAlign=top;align=center;html=1;shape=mxgraph.aws3.ec2;fillColor=#F58534;gradientColor=none;" vertex="1" parent="IAjaX-PFbVuU0al4ulls-34">
          <mxGeometry x="16.75" y="47" width="30" height="43" as="geometry" />
        </mxCell>
        <mxCell id="IAjaX-PFbVuU0al4ulls-35" value="" style="points=[[0,0,0],[0.25,0,0],[0.5,0,0],[0.75,0,0],[1,0,0],[0,1,0],[0.25,1,0],[0.5,1,0],[0.75,1,0],[1,1,0],[0,0.25,0],[0,0.5,0],[0,0.75,0],[1,0.25,0],[1,0.5,0],[1,0.75,0]];outlineConnect=0;fontColor=#232F3E;fillColor=#ED7100;strokeColor=#ffffff;dashed=0;verticalLabelPosition=bottom;verticalAlign=top;align=center;html=1;fontSize=12;fontStyle=0;aspect=fixed;shape=mxgraph.aws4.resourceIcon;resIcon=mxgraph.aws4.auto_scaling2;" vertex="1" parent="IAjaX-PFbVuU0al4ulls-34">
          <mxGeometry x="57.75" y="51" width="33" height="33" as="geometry" />
        </mxCell>
        <mxCell id="IAjaX-PFbVuU0al4ulls-37" value="" style="shape=image;html=1;verticalAlign=top;verticalLabelPosition=bottom;labelBackgroundColor=#ffffff;imageAspect=0;aspect=fixed;image=https://cdn4.iconfinder.com/data/icons/ios-web-user-interface-multi-circle-flat-vol-5/512/Collection_folder_data_group_locked_security_secure_lock-128.png;" vertex="1" parent="IAjaX-PFbVuU0al4ulls-34">
          <mxGeometry x="101.75" y="49" width="38" height="38" as="geometry" />
        </mxCell>
        <mxCell id="IAjaX-PFbVuU0al4ulls-79" value="EC2,Auto Scaling,Security Group" style="text;html=1;strokeColor=none;fillColor=none;align=center;verticalAlign=middle;whiteSpace=wrap;rounded=0;" vertex="1" parent="IAjaX-PFbVuU0al4ulls-34">
          <mxGeometry x="5.75" y="87" width="139.25" height="50" as="geometry" />
        </mxCell>
        <mxCell id="IAjaX-PFbVuU0al4ulls-39" value="" style="verticalLabelPosition=bottom;html=1;verticalAlign=top;strokeWidth=1;align=center;outlineConnect=0;dashed=0;outlineConnect=0;shape=mxgraph.aws3d.s3Bucket;fillColor=#4286c5;strokeColor=#57A2D8;aspect=fixed;" vertex="1" parent="1">
          <mxGeometry x="580" y="-64.00000000000001" width="61.5" height="63.800000000000004" as="geometry" />
        </mxCell>
        <mxCell id="IAjaX-PFbVuU0al4ulls-40" value="" style="outlineConnect=0;dashed=0;verticalLabelPosition=bottom;verticalAlign=top;align=center;html=1;shape=mxgraph.aws3.rds;fillColor=#2E73B8;gradientColor=none;" vertex="1" parent="1">
          <mxGeometry x="718" y="69.5" width="40" height="51" as="geometry" />
        </mxCell>
        <mxCell id="IAjaX-PFbVuU0al4ulls-41" value="" style="outlineConnect=0;dashed=0;verticalLabelPosition=bottom;verticalAlign=top;align=center;html=1;shape=mxgraph.aws3.sns;fillColor=#D9A741;gradientColor=none;" vertex="1" parent="1">
          <mxGeometry x="784" y="189" width="40" height="56.5" as="geometry" />
        </mxCell>
        <mxCell id="IAjaX-PFbVuU0al4ulls-70" value="" style="edgeStyle=orthogonalEdgeStyle;rounded=0;orthogonalLoop=1;jettySize=auto;html=1;" edge="1" parent="1" source="IAjaX-PFbVuU0al4ulls-42" target="IAjaX-PFbVuU0al4ulls-41">
          <mxGeometry relative="1" as="geometry" />
        </mxCell>
        <mxCell id="IAjaX-PFbVuU0al4ulls-42" value="" style="outlineConnect=0;fontColor=#232F3E;gradientColor=none;fillColor=#ED7100;strokeColor=none;dashed=0;verticalLabelPosition=bottom;verticalAlign=top;align=center;html=1;fontSize=12;fontStyle=0;aspect=fixed;pointerEvents=1;shape=mxgraph.aws4.instance_with_cloudwatch2;" vertex="1" parent="1">
          <mxGeometry x="636.5" y="193.25" width="48" height="48" as="geometry" />
        </mxCell>
        <mxCell id="IAjaX-PFbVuU0al4ulls-75" style="edgeStyle=orthogonalEdgeStyle;rounded=0;orthogonalLoop=1;jettySize=auto;html=1;exitX=1;exitY=0.5;exitDx=0;exitDy=0;exitPerimeter=0;" edge="1" parent="1" source="IAjaX-PFbVuU0al4ulls-43">
          <mxGeometry relative="1" as="geometry">
            <mxPoint x="750" y="130" as="targetPoint" />
          </mxGeometry>
        </mxCell>
        <mxCell id="IAjaX-PFbVuU0al4ulls-43" value="Lambda" style="outlineConnect=0;dashed=0;verticalLabelPosition=bottom;verticalAlign=top;align=center;html=1;shape=mxgraph.aws3.lambda;fillColor=#F58534;gradientColor=none;" vertex="1" parent="1">
          <mxGeometry x="540" y="440" width="50" height="53" as="geometry" />
        </mxCell>
        <mxCell id="IAjaX-PFbVuU0al4ulls-74" value="" style="edgeStyle=orthogonalEdgeStyle;rounded=0;orthogonalLoop=1;jettySize=auto;html=1;" edge="1" parent="1" source="IAjaX-PFbVuU0al4ulls-47" target="IAjaX-PFbVuU0al4ulls-43">
          <mxGeometry relative="1" as="geometry" />
        </mxCell>
        <mxCell id="IAjaX-PFbVuU0al4ulls-47" value="API Gateway" style="html=1;verticalAlign=top;labelPosition=center;verticalLabelPosition=bottom;align=center;spacingTop=-6;fontSize=11;fontStyle=1;fontColor=#999999;shape=image;aspect=fixed;imageAspect=0;image=data:image/svg+xml,PHN2ZyB4bWxucz0iaHR0cDovL3d3dy53My5vcmcvMjAwMC9zdmciIGhlaWdodD0iMzY3LjgxODMyODg1NzQyMTkiIHZpZXdCb3g9IjcuMTA1NDI3MzU3NjAxMDAyZS0xNSAwIDM2Ni40MTAxODY3Njc1NzgxIDM2Ny44MTgzMjg4NTc0MjE5IiBwcmVzZXJ2ZUFzcGVjdFJhdGlvPSJ4TWlkWU1pZCBtZWV0IiB3aWR0aD0iMzY2LjQxMDE5Njc2NzU3OTEiIHZlcnNpb249IjEuMSIgaWQ9InN2Zzk4NyIgem9vbUFuZFBhbj0ibWFnbmlmeSI+JiN4YTsgIDxwYXRoIGQ9Im0gNDguMjUxOTYsMTExLjUzOTA2IGMgLTcuNjE4NjQsMmUtNCAtMTMuNzk0NzIsNi4xNzYyOCAtMTMuNzk0OTMsMTMuNzk0OTIgMi4xZS00LDcuNjE4NjQgNi4xNzYyOSwxMy43OTQ3MiAxMy43OTQ5MywxMy43OTQ5MiBoIDE0NS4xNDY5MiB2IC0yNy41ODk4NCB6IG0gMjM4LjYwODU5LDU3LjQ1MTE3IGggNjUuNzU0NjkgYyA3LjYxODY0LC0yLjFlLTQgMTMuNzk0NzEsLTYuMTc2MjggMTMuNzk0OTIsLTEzLjc5NDkyIC0yLjFlLTQsLTcuNjE4NjQgLTYuMTc2MjgsLTEzLjc5NDcxIC0xMy43OTQ5MiwtMTMuNzk0OTIgSCAyODQuODUwNiBaIE0gMTMuNzk0OTIsMTcwLjk3NDYxIEMgNi4xNzYyODAxLDE3MC45NzQ4MiAyLjEwMDkxOWUtNCwxNzcuMTUwODkgOS4xODk5MjFlLTgsMTg0Ljc2OTUzIC04LjY5OTA4MWUtNCwxOTIuMzg4OTMgNi4xNzU1MjAxLDE5OC41NjYxOSAxMy43OTQ5MiwxOTguNTY2NCBIIDE5My4zOTg4OCBWIDE3MC45NzQ2MSBaIE0gMjg0LjMwNzgsMjI3LjU2NjQgaCA2OC4zMDc0NCBjIDcuNjE4NjQsLTIuMWUtNCAxMy43OTQ3MSwtNi4xNzYyOCAxMy43OTQ5MiwtMTMuNzk0OTIgLTIuMWUtNCwtNy42MTg2NCAtNi4xNzYyOCwtMTMuNzk0NzEgLTEzLjc5NDkyLC0xMy43OTQ5MiBoIC02NS45MjE3OCB6IG0gLTIzNi4wNTU4NCwxLjY5NzI3IGMgLTcuNjE4NjQsMmUtNCAtMTMuNzk0NzIsNi4xNzYyOCAtMTMuNzk0OTMsMTMuNzk0OTIgMi4xZS00LDcuNjE4NjQgNi4xNzYyOSwxMy43OTQ3MiAxMy43OTQ5MywxMy43OTQ5MiBIIDE5My4zOTg4OCBWIDIyOS4yNjM2NyBaIE0gMTg5LjUyMTQ5LDAgYyAtMjQuNTc0MTEsMCAtNDkuMTY3MzcsMjAuMDU1MDcgLTU5LjQzNzUsNzUuMzczMDQgaCAzMC41ODAwNyBjIDQuNjE2MzMsLTI0LjE2MjA2IDE1LjM0ODk2LC00Ny41MjE0OCAyNy44NTM1MiwtNDcuNTIxNDggMTIuMTU4OCwwIDM5LjQ1ODk4LDU3LjQ1MDQ0IDM5LjQ1ODk4LDE2MC40MTQwNiAwLDY5LjkxNTEzIC0xOS41NzgwOSwxNTIuMTE1MjQgLTQxLjE3MTg3LDE1Mi4xMTUyMyAtMTUuMjY4ODEsMmUtNSAtMjEuMjE2NjgsLTI4LjMzMzU2IC0yNS40NDMzNiwtNDYuNzE4NzQgbCAtMzAuNDE0MDYsLTAuMDY4NCBjIDQuMjIwNzQsMjAuNTQwODcgMTYuOTA3NjgsNzQuMjI0NiA1Ny43MTI4OSw3NC4yMjQ2IDUzLjQzNjcyLDAgNjguOTEyMTEsLTExMS45OTMwNSA2OC45MTIxMSwtMTgwLjQ2Mjg5IEMgMjU3LjU3MjI3LDkzLjgwMDc2IDIzNi41ODM0LDAgMTg5LjUyMTQ5LDAgWiIgc3R5bGU9ImNvbG9yOiMwMDAwMDA7b3BhY2l0eToxO2ZpbGw6IzQyODVmNDtmaWxsLW9wYWNpdHk6MTtzdHJva2UtbGluZWNhcDpyb3VuZDstaW5rc2NhcGUtc3Ryb2tlOm5vbmUiLz4mI3hhOzwvc3ZnPg==;" vertex="1" parent="1">
          <mxGeometry x="383" y="445" width="42" height="42" as="geometry" />
        </mxCell>
        <mxCell id="IAjaX-PFbVuU0al4ulls-49" value="" style="points=[[0,0,0],[0.25,0,0],[0.5,0,0],[0.75,0,0],[1,0,0],[0,1,0],[0.25,1,0],[0.5,1,0],[0.75,1,0],[1,1,0],[0,0.25,0],[0,0.5,0],[0,0.75,0],[1,0.25,0],[1,0.5,0],[1,0.75,0]];outlineConnect=0;fontColor=#232F3E;fillColor=#DD344C;strokeColor=#ffffff;dashed=0;verticalLabelPosition=bottom;verticalAlign=top;align=center;html=1;fontSize=12;fontStyle=0;aspect=fixed;shape=mxgraph.aws4.resourceIcon;resIcon=mxgraph.aws4.guardduty;" vertex="1" parent="1">
          <mxGeometry x="641.5" y="382" width="38" height="38" as="geometry" />
        </mxCell>
        <mxCell id="IAjaX-PFbVuU0al4ulls-56" value="" style="endArrow=none;html=1;rounded=0;" edge="1" parent="1">
          <mxGeometry width="50" height="50" relative="1" as="geometry">
            <mxPoint x="170" y="250" as="sourcePoint" />
            <mxPoint x="170" y="250" as="targetPoint" />
            <Array as="points">
              <mxPoint x="120" y="250" />
              <mxPoint x="120" y="110" />
              <mxPoint x="170" y="110" />
            </Array>
          </mxGeometry>
        </mxCell>
        <mxCell id="IAjaX-PFbVuU0al4ulls-73" style="edgeStyle=orthogonalEdgeStyle;rounded=0;orthogonalLoop=1;jettySize=auto;html=1;exitX=1;exitY=0;exitDx=0;exitDy=0;exitPerimeter=0;entryX=0.906;entryY=1.182;entryDx=0;entryDy=0;entryPerimeter=0;" edge="1" parent="1" source="IAjaX-PFbVuU0al4ulls-49" target="IAjaX-PFbVuU0al4ulls-42">
          <mxGeometry relative="1" as="geometry" />
        </mxCell>
        <mxCell id="IAjaX-PFbVuU0al4ulls-76" value="Route52" style="text;html=1;align=center;verticalAlign=middle;resizable=0;points=[];autosize=1;strokeColor=none;fillColor=none;" vertex="1" parent="1">
          <mxGeometry x="111" y="228" width="70" height="30" as="geometry" />
        </mxCell>
        <mxCell id="IAjaX-PFbVuU0al4ulls-77" value="Cloudfront" style="text;html=1;align=center;verticalAlign=middle;resizable=0;points=[];autosize=1;strokeColor=none;fillColor=none;" vertex="1" parent="1">
          <mxGeometry x="250" y="236" width="80" height="30" as="geometry" />
        </mxCell>
        <mxCell id="IAjaX-PFbVuU0al4ulls-78" value="Load Balancer" style="text;html=1;strokeColor=none;fillColor=none;align=center;verticalAlign=middle;whiteSpace=wrap;rounded=0;" vertex="1" parent="1">
          <mxGeometry x="360.25" y="237.75" width="60" height="30" as="geometry" />
        </mxCell>
        <mxCell id="IAjaX-PFbVuU0al4ulls-81" value="S3 bucket for EC2 and DB Backup" style="text;html=1;strokeColor=none;fillColor=none;align=center;verticalAlign=middle;whiteSpace=wrap;rounded=0;" vertex="1" parent="1">
          <mxGeometry x="648" y="-50" width="110" height="30" as="geometry" />
        </mxCell>
        <mxCell id="IAjaX-PFbVuU0al4ulls-82" value="&amp;nbsp;RDS" style="text;html=1;strokeColor=none;fillColor=none;align=center;verticalAlign=middle;whiteSpace=wrap;rounded=0;" vertex="1" parent="1">
          <mxGeometry x="707" y="47" width="60" height="30" as="geometry" />
        </mxCell>
        <mxCell id="IAjaX-PFbVuU0al4ulls-83" value="SNS" style="text;html=1;strokeColor=none;fillColor=none;align=center;verticalAlign=middle;whiteSpace=wrap;rounded=0;" vertex="1" parent="1">
          <mxGeometry x="776" y="243.5" width="60" height="30" as="geometry" />
        </mxCell>
        <mxCell id="IAjaX-PFbVuU0al4ulls-84" value="Cloud Watch" style="text;html=1;strokeColor=none;fillColor=none;align=center;verticalAlign=middle;whiteSpace=wrap;rounded=0;" vertex="1" parent="1">
          <mxGeometry x="672" y="220.75" width="60" height="30" as="geometry" />
        </mxCell>
        <mxCell id="IAjaX-PFbVuU0al4ulls-85" value="guardduty" style="text;html=1;strokeColor=none;fillColor=none;align=center;verticalAlign=middle;whiteSpace=wrap;rounded=0;" vertex="1" parent="1">
          <mxGeometry x="630.5" y="413" width="60" height="30" as="geometry" />
        </mxCell>
        <mxCell id="IAjaX-PFbVuU0al4ulls-86" value="" style="endArrow=classic;html=1;rounded=0;entryX=0;entryY=0.5;entryDx=0;entryDy=0;" edge="1" parent="1" source="IAjaX-PFbVuU0al4ulls-2" target="IAjaX-PFbVuU0al4ulls-47">
          <mxGeometry width="50" height="50" relative="1" as="geometry">
            <mxPoint x="274" y="500" as="sourcePoint" />
            <mxPoint x="324" y="450" as="targetPoint" />
          </mxGeometry>
        </mxCell>
      </root>
    </mxGraphModel>
  </diagram>
</mxfile>
